<?xml version="1.0" encoding="UTF-8"?><svg id="wsh-Layer_1" xmlns="http://www.w3.org/2000/svg" xmlns:xlink="http://www.w3.org/1999/xlink" viewBox="0 0 820.8 581.52"><defs><style>.wsh-1{letter-spacing:0em;}.wsh-2{letter-spacing:0em;}.wsh-3{filter:url(#wsh-drop-shadow-1);}.wsh-4{filter:url(#wsh-drop-shadow-3);}.wsh-5{filter:url(#wsh-drop-shadow-2);}.wsh-6{letter-spacing:.07em;}.wsh-6,.wsh-7,.wsh-8,.wsh-9,.wsh-10,.wsh-11,.wsh-12,.wsh-13,.wsh-14,.wsh-15{font-family:DMSans-Bold, 'DM Sans';font-variation-settings:'opsz' 14, 'wght' 700;font-weight:700;}.wsh-6,.wsh-16,.wsh-12{fill:#29a74a;}.wsh-6,.wsh-9{font-size:12.53px;}.wsh-17{fill:#f3f4f5;}.wsh-18{fill-rule:evenodd;}.wsh-18,.wsh-19{fill:#a0a2b5;}.wsh-7{font-size:16.39px;}.wsh-7,.wsh-20,.wsh-16,.wsh-21,.wsh-11,.wsh-12,.wsh-13,.wsh-22,.wsh-14,.wsh-15,.wsh-23{isolation:isolate;}.wsh-7,.wsh-20,.wsh-14,.wsh-15{fill:#00293a;}.wsh-24{fill:#fceeeb;}.wsh-25{stroke:#3e8c5b;}.wsh-25,.wsh-26,.wsh-27,.wsh-28,.wsh-29,.wsh-30{fill:none;}.wsh-25,.wsh-26,.wsh-28,.wsh-29{stroke-linecap:round;stroke-width:2px;}.wsh-25,.wsh-28,.wsh-29{stroke-linejoin:round;}.wsh-26{stroke:#dc3746;}.wsh-26,.wsh-31{stroke-miterlimit:10;}.wsh-31{fill:#f4f8fb;stroke:#00619d;stroke-width:.75px;}.wsh-8{fill:#6c7280;font-size:11.78px;}.wsh-20{font-size:12.8px;}.wsh-20,.wsh-16,.wsh-22,.wsh-23{font-family:DMSans-Medium, 'DM Sans';font-variation-settings:'opsz' 14, 'wght' 500;font-weight:500;}.wsh-32{fill:#fef3e3;}.wsh-16,.wsh-22{font-size:14.74px;}.wsh-27,.wsh-33{stroke:#e5e8ea;}.wsh-21{fill:#b0b8bc;font-family:DMSans-9ptRegular, 'DM Sans';font-variation-settings:'opsz' 9, 'wght' 400;}.wsh-21,.wsh-23{font-size:20.99px;}.wsh-9{letter-spacing:.07em;}.wsh-9,.wsh-11,.wsh-22{fill:#dc3746;}.wsh-10{fill:#00619d;font-size:18.37px;}.wsh-34{letter-spacing:0em;}.wsh-11,.wsh-12{font-size:23.59px;}.wsh-35{letter-spacing:0em;}.wsh-28{stroke:#d97e27;}.wsh-36{letter-spacing:0em;}.wsh-33{fill:#fff;}.wsh-29{stroke:#c7ced2;}.wsh-37{letter-spacing:-.09em;}.wsh-38{letter-spacing:-.02em;}.wsh-39{letter-spacing:-.02em;}.wsh-40{letter-spacing:-.03em;}.wsh-41{fill:#ebf5ed;}.wsh-42{letter-spacing:-.02em;}.wsh-43{letter-spacing:-.02em;}.wsh-44{letter-spacing:-.02em;}.wsh-45{letter-spacing:-.02em;}.wsh-46{letter-spacing:-.02em;}.wsh-47{letter-spacing:-.02em;}.wsh-48{letter-spacing:-.02em;}.wsh-49{letter-spacing:-.02em;}.wsh-50{letter-spacing:-.02em;}.wsh-51{letter-spacing:-.02em;}.wsh-52{letter-spacing:-.02em;}.wsh-53{letter-spacing:-.01em;}.wsh-54{letter-spacing:-.02em;}.wsh-55{letter-spacing:-.02em;}.wsh-56{letter-spacing:-.01em;}.wsh-57{letter-spacing:-.05em;}.wsh-58{letter-spacing:-.05em;}.wsh-59{letter-spacing:-.04em;}.wsh-60{letter-spacing:-.05em;}.wsh-61{letter-spacing:-.03em;}.wsh-62{letter-spacing:-.03em;}.wsh-63{letter-spacing:-.03em;}.wsh-64{letter-spacing:-.03em;}.wsh-65{letter-spacing:0em;}.wsh-66{letter-spacing:0em;}.wsh-67{letter-spacing:0em;}.wsh-68{letter-spacing:0em;}.wsh-69{letter-spacing:0em;}.wsh-70{letter-spacing:0em;}.wsh-71{letter-spacing:-.01em;}.wsh-72{letter-spacing:-.01em;}.wsh-73{letter-spacing:0em;}.wsh-74{letter-spacing:0em;}.wsh-75{letter-spacing:0em;}.wsh-13{fill:#7c868d;font-size:15.6px;letter-spacing:.08em;}.wsh-30{stroke:#eff1f3;}.wsh-14{font-size:21.83px;}.wsh-15{font-size:16.96px;}.wsh-23{fill:#8b949b;}</style><filter id="wsh-drop-shadow-1" x="0" y="0" width="644.88" height="523.68" filterUnits="userSpaceOnUse"><feOffset dx="-7" dy="7"/><feGaussianBlur result="blur" stdDeviation="18"/><feFlood flood-color="#010101" flood-opacity=".15"/><feComposite in2="blur" operator="in"/><feComposite in="SourceGraphic"/></filter><filter id="wsh-drop-shadow-2" x="218.88" y="218.88" width="500.64" height="362.64" filterUnits="userSpaceOnUse"><feOffset dx="-7" dy="7"/><feGaussianBlur result="blur-2" stdDeviation="18"/><feFlood flood-color="#010101" flood-opacity=".15"/><feComposite in2="blur-2" operator="in"/><feComposite in="SourceGraphic"/></filter><filter id="wsh-drop-shadow-3" x="380.4" y="134.64" width="440.4" height="262.32" filterUnits="userSpaceOnUse"><feOffset dx="-7" dy="7"/><feGaussianBlur result="blur-3" stdDeviation="18"/><feFlood flood-color="#010101" flood-opacity=".15"/><feComposite in2="blur-3" operator="in"/><feComposite in="SourceGraphic"/></filter></defs><g class="wsh-cls-3"><rect class="wsh-cls-33" x="61.68" y="47.62" width="535.67" height="414.45" rx="16.5" ry="16.5"/></g><path class="wsh-cls-31" d="M119.3,161.27h122.45c9.66,0,17.49,7.83,17.49,17.49h0c0,9.66-7.83,17.49-17.49,17.49h-122.45c-9.66,0-17.49-7.83-17.49-17.49h0c0-9.66,7.83-17.49,17.49-17.49Z"/><text class="wsh-cls-10" transform="translate(154.57 185.76)"><tspan class="wsh-cls-49" x="0" y="0">L</tspan><tspan x="9.83" y="0">ease</tspan></text><text class="wsh-cls-23" transform="translate(320.76 185.76)"><tspan x="0" y="0">N</tspan><tspan class="wsh-cls-44" x="14.76" y="0">e</tspan><tspan x="26.49" y="0">w </tspan><tspan class="wsh-cls-37" x="48.26" y="0">Y</tspan><tspan x="58.95" y="0">ork</tspan></text><text class="wsh-cls-21" transform="translate(489.65 185.76)"><tspan x="0" y="0">380</tspan></text><line class="wsh-cls-30" x1="101.81" y1="217.25" x2="528.65" y2="217.25"/><path class="wsh-cls-31" d="M119.3,234.74h122.45c9.66,0,17.49,7.83,17.49,17.49h0c0,9.66-7.83,17.49-17.49,17.49h-122.45c-9.66,0-17.49-7.83-17.49-17.49h0c0-9.66,7.83-17.49,17.49-17.49Z"/><text class="wsh-cls-10" transform="translate(154.57 259.23)"><tspan class="wsh-cls-49" x="0" y="0">L</tspan><tspan x="9.83" y="0">ease</tspan></text><text class="wsh-cls-23" transform="translate(320.76 259.23)"><tspan class="wsh-cls-73" x="0" y="0">A</tspan><tspan x="14.02" y="0">u</tspan><tspan class="wsh-cls-44" x="26.34" y="0">s</tspan><tspan x="36.65" y="0">tin</tspan></text><text class="wsh-cls-21" transform="translate(488.39 259.23)"><tspan x="0" y="0">500</tspan></text><line class="wsh-cls-30" x1="101.81" y1="290.72" x2="528.65" y2="290.72"/><path class="wsh-cls-31" d="M119.3,308.22h122.45c9.66,0,17.49,7.83,17.49,17.49h0c0,9.66-7.83,17.49-17.49,17.49h-122.45c-9.66,0-17.49-7.83-17.49-17.49h0c0-9.66,7.83-17.49,17.49-17.49Z"/><text class="wsh-cls-10" transform="translate(146.12 332.71)"><tspan x="0" y="0">License</tspan></text><text class="wsh-cls-23" transform="translate(320.76 332.71)"><tspan x="0" y="0">Se</tspan><tspan class="wsh-cls-71" x="24.48" y="0">a</tspan><tspan x="35.94" y="0">ttle</tspan></text><text class="wsh-cls-21" transform="translate(501.99 332.71)"><tspan x="0" y="0">40</tspan></text><line class="wsh-cls-30" x1="101.81" y1="364.19" x2="528.65" y2="364.19"/><path class="wsh-cls-31" d="M119.3,381.69h122.45c9.66,0,17.49,7.83,17.49,17.49h0c0,9.66-7.83,17.49-17.49,17.49h-122.45c-9.66,0-17.49-7.83-17.49-17.49h0c0-9.66,7.83-17.49,17.49-17.49Z"/><text class="wsh-cls-10" transform="translate(125.89 406.18)"><tspan x="0" y="0">On-demand</tspan></text><text class="wsh-cls-23" transform="translate(320.76 406.18)"><tspan x="0" y="0">De</tspan><tspan class="wsh-cls-75" x="26.72" y="0">n</tspan><tspan class="wsh-cls-39" x="38.88" y="0">v</tspan><tspan x="49.69" y="0">er</tspan></text><text class="wsh-cls-21" transform="translate(503.92 406.18)"><tspan class="wsh-cls-52" x="0" y="0">5</tspan><tspan class="wsh-cls-36" x="12.36" y="0">2</tspan></text><g class="wsh-cls-5"><rect class="wsh-cls-33" x="280.47" y="266.51" width="391.39" height="253.43" rx="14.84" ry="14.84"/></g><text class="wsh-cls-7" transform="translate(305.3 314.88)"><tspan x="0" y="0">Consider</tspan><tspan class="wsh-cls-68" x="72.71" y="0">a</tspan><tspan x="82.22" y="0">tions</tspan></text><line class="wsh-cls-27" x1="305.59" y1="340.49" x2="649.73" y2="340.49"/><circle class="wsh-cls-24" cx="316.86" cy="364.04" r="11.27"/><path class="wsh-cls-26" d="M311.74,364.64l3,2.48,7-5.79"/><text class="wsh-cls-20" transform="translate(338.36 368.48)"><tspan class="wsh-cls-38" x="0" y="0">L</tspan><tspan class="wsh-cls-34" x="6.59" y="0">ease </tspan><tspan class="wsh-cls-55" x="38.37" y="0">r</tspan><tspan x="43.06" y="0">en</tspan><tspan class="wsh-cls-43" x="57.98" y="0">e</tspan><tspan class="wsh-cls-42" x="65.14" y="0">w</tspan><tspan class="wsh-cls-34" x="74.87" y="0">al</tspan></text><path class="wsh-cls-17" d="M520.68,353.8h96.28c6.79,0,12.29,5.5,12.29,12.29h0c0,6.79-5.5,12.29-12.29,12.29h-96.28c-6.79,0-12.29-5.5-12.29-12.29h0c0-6.79,5.5-12.29,12.29-12.29Z"/><text class="wsh-cls-8" transform="translate(518.73 370.19)"><tspan x="0" y="0">$2–3M head</tspan><tspan class="wsh-cls-74" x="71.4" y="0">r</tspan><tspan x="76.12" y="0">oom</tspan></text><path class="wsh-cls-29" d="M641.53,362l5.12,6.15-5.12,6.15"/><line class="wsh-cls-27" x1="305.59" y1="389.65" x2="649.73" y2="389.65"/><circle class="wsh-cls-41" cx="316.86" cy="413.21" r="11.27"/><path class="wsh-cls-25" d="M311.74,413.21l3.07,3.07,7.17-7.17"/><text class="wsh-cls-20" transform="translate(338.36 417.3)"><tspan x="0" y="0">1</tspan><tspan class="wsh-cls-59" x="4.2" y="0">0</tspan><tspan class="wsh-cls-62" x="12.52" y="0">.</tspan><tspan x="14.89" y="0">9× co</tspan><tspan class="wsh-cls-46" x="48.52" y="0">s</tspan><tspan x="54.81" y="0">t gap </tspan><tspan class="wsh-cls-47" x="89.11" y="0">v</tspan><tspan x="95.71" y="0">s. fl</tspan><tspan class="wsh-cls-40" x="115.79" y="0">e</tspan><tspan x="122.85" y="0">x</tspan></text><path class="wsh-cls-17" d="M541.16,400.92h75.79c6.79,0,12.29,5.5,12.29,12.29h0c0,6.79-5.5,12.29-12.29,12.29h-75.79c-6.79,0-12.29-5.5-12.29-12.29h0c0-6.79,5.5-12.29,12.29-12.29Z"/><text class="wsh-cls-8" transform="translate(543.12 417.3)"><tspan x="0" y="0">E</tspan><tspan class="wsh-cls-63" x="6.87" y="0">v</tspan><tspan x="13.17" y="0">alu</tspan><tspan class="wsh-cls-65" x="30.47" y="0">a</tspan><tspan class="wsh-cls-53" x="37.3" y="0">t</tspan><tspan x="42.25" y="0">e fl</tspan><tspan class="wsh-cls-64" x="59.62" y="0">e</tspan><tspan x="66.3" y="0">x</tspan></text><path class="wsh-cls-29" d="M641.53,409.11l5.12,6.15-5.12,6.15"/><line class="wsh-cls-27" x1="305.59" y1="436.76" x2="649.73" y2="436.76"/><circle class="wsh-cls-32" cx="316.86" cy="460.32" r="11.27"/><path class="wsh-cls-28" d="M311.74,460.32l3.07,3.07,7.17-7.17"/><text class="wsh-cls-20" transform="translate(338.36 464.42)"><tspan x="0" y="0">6</tspan><tspan class="wsh-cls-56" x="8.07" y="0">3</tspan><tspan x="15.49" y="0">1 bookings, no hub </tspan><tspan class="wsh-cls-60" x="128.51" y="0">y</tspan><tspan class="wsh-cls-56" x="135.23" y="0">e</tspan><tspan x="142.47" y="0">t</tspan></text><path class="wsh-cls-17" d="M543.21,448.03h73.74c6.79,0,12.29,5.5,12.29,12.29h0c0,6.79-5.5,12.29-12.29,12.29h-73.74c-6.79,0-12.29-5.5-12.29-12.29h0c0-6.79,5.5-12.29,12.29-12.29Z"/><text class="wsh-cls-8" transform="translate(538.06 464.42)"><tspan x="0" y="0">Hub candid</tspan><tspan class="wsh-cls-69" x="66.12" y="0">a</tspan><tspan class="wsh-cls-53" x="72.96" y="0">t</tspan><tspan x="77.9" y="0">e</tspan></text><path class="wsh-cls-29" d="M641.53,456.22l5.12,6.15-5.12,6.15"/><g class="wsh-cls-4"><rect class="wsh-cls-33" x="442.02" y="182.17" width="331.13" height="153.2" rx="10.67" ry="10.67"/></g><text class="wsh-cls-15" transform="translate(469.15 218.99)"><tspan x="0" y="0">Ef</tspan><tspan class="wsh-cls-45" x="16.18" y="0">f</tspan><tspan class="wsh-cls-1" x="22.13" y="0">e</tspan><tspan class="wsh-cls-66" x="32.33" y="0">c</tspan><tspan class="wsh-cls-1" x="42.53" y="0">ti</tspan><tspan class="wsh-cls-48" x="54.51" y="0">v</tspan><tspan x="63.7" y="0">e Co</tspan><tspan class="wsh-cls-50" x="100.75" y="0">s</tspan><tspan x="109.52" y="0">t per </tspan><tspan class="wsh-cls-58" x="153.08" y="0">W</tspan><tspan x="169.42" y="0">ork D</tspan><tspan class="wsh-cls-51" x="212.47" y="0">a</tspan><tspan x="222.1" y="0">y</tspan></text><rect class="wsh-cls-24" x="469.15" y="233.74" width="135.65" height="76.67" rx="10" ry="10"/><text class="wsh-cls-9" transform="translate(511.04 259.06)"><tspan x="0" y="0">LEASED</tspan></text><text class="wsh-cls-11" transform="translate(495.2 288.55)"><tspan x="0" y="0">$1</tspan><tspan class="wsh-cls-70" x="22.84" y="0">2</tspan><tspan x="36.35" y="0">0</tspan></text><text class="wsh-cls-22" transform="translate(547.52 288.55)"><tspan class="wsh-cls-57" x="0" y="0">/</tspan><tspan class="wsh-cls-35" x="5.23" y="0">d</tspan><tspan class="wsh-cls-54" x="14.61" y="0">a</tspan><tspan x="22.59" y="0">y</tspan></text><rect class="wsh-cls-41" x="616.6" y="233.74" width="135.65" height="76.67" rx="10" ry="10"/><text class="wsh-cls-6" transform="translate(640.69 259.06)"><tspan x="0" y="0">ON-DEMAND</tspan></text><text class="wsh-cls-12" transform="translate(641.66 288.55)"><tspan x="0" y="0">$</tspan><tspan class="wsh-cls-72" x="14.25" y="0">6</tspan><tspan x="28.95" y="0">7</tspan></text><text class="wsh-cls-16" transform="translate(681.59 288.55)"><tspan class="wsh-cls-57" x="0" y="0">/</tspan><tspan class="wsh-cls-35" x="5.23" y="0">d</tspan><tspan class="wsh-cls-54" x="14.61" y="0">a</tspan><tspan x="22.59" y="0">y</tspan></text><path class="wsh-cls-19" d="M713.43,212.79c.36,0,.65.29.65.65v2.58c0,.36-.29.65-.65.65s-.65-.29-.65-.65v-2.58c0-.36.29-.65.65-.65Z"/><path class="wsh-cls-19" d="M713.43,210.2c-.36,0-.65.29-.65.65s.29.65.65.65h0c.36,0,.65-.29.65-.65s-.29-.65-.65-.65h0Z"/><path class="wsh-cls-18" d="M706.32,213.43c0-3.92,3.18-7.11,7.11-7.11s7.11,3.18,7.11,7.11-3.18,7.11-7.11,7.11-7.11-3.18-7.11-7.11ZM713.43,207.62c-3.21,0-5.81,2.6-5.81,5.81s2.6,5.81,5.81,5.81,5.81-2.6,5.81-5.81-2.6-5.81-5.81-5.81Z"/><text class="wsh-cls-13" transform="translate(109.18 90.08)"><tspan x="0" y="0">PORTFOLIO PLANNING</tspan></text><text class="wsh-cls-14" transform="translate(109.18 125.95)"><tspan x="0" y="0">12 loc</tspan><tspan class="wsh-cls-67" x="58.08" y="0">a</tspan><tspan x="70.74" y="0">tions · $</tspan><tspan class="wsh-cls-61" x="153.53" y="0">9</tspan><tspan class="wsh-cls-2" x="166.74" y="0">.2M annual spend</tspan></text></svg>