<svg width="145" height="47" viewBox="0 0 145 47" fill="none" xmlns="http://www.w3.org/2000/svg">
<g clip-path="url(#clip0_2033_1707)">
<path d="M135.419 14.8716L127.411 13.0478L125.981 12.4866L89.2305 12.7672V30.1642L135.419 30.3045V14.8716Z" fill="white"/>
<path d="M120.404 28.6209C120.634 28.0234 120.715 27.3805 120.641 26.746C120.566 26.1114 120.338 25.5036 119.975 24.9732C119.602 24.5349 119.145 24.173 118.63 23.9082C118.115 23.6434 117.551 23.4808 116.972 23.4299L92.0904 23.1493C91.9474 23.1493 91.8044 23.009 91.6614 23.009C91.6281 22.9845 91.601 22.9527 91.5824 22.9162C91.5638 22.8796 91.5541 22.8394 91.5541 22.7985C91.5541 22.7577 91.5638 22.7174 91.5824 22.6809C91.601 22.6444 91.6281 22.6126 91.6614 22.5881C91.8044 22.3075 91.9474 22.1672 92.2334 22.1672L117.258 21.8866C118.847 21.7136 120.36 21.1285 121.642 20.1915C122.923 19.2545 123.928 17.9994 124.551 16.5552L125.981 12.9075C125.981 12.7672 126.124 12.6269 125.981 12.4866C125.203 9.08915 123.317 6.03356 120.608 3.78415C117.899 1.53474 114.515 0.214468 110.972 0.0239586C107.428 -0.166551 103.918 0.783117 100.974 2.72866C98.031 4.67419 95.8154 7.50924 94.6643 10.803C93.1699 9.75586 91.3472 9.25909 89.5164 9.40002C87.8363 9.58382 86.2698 10.3228 85.0745 11.4957C83.8791 12.6685 83.1258 14.2053 82.9385 15.8538C82.8433 16.6975 82.8916 17.5509 83.0815 18.3791C80.363 18.4529 77.7811 19.5643 75.885 21.477C73.9889 23.3897 72.9282 25.9527 72.9286 28.6209C72.9052 29.1393 72.9533 29.6585 73.0716 30.1642C73.0782 30.2737 73.1255 30.3771 73.2046 30.4547C73.2836 30.5322 73.389 30.5787 73.5006 30.5851H119.403C119.689 30.5851 119.975 30.4448 119.975 30.1642L120.404 28.6209Z" fill="#00293A"/>
<path d="M128.269 12.9075H127.554C127.411 12.9075 127.268 13.0478 127.125 13.1881L126.124 16.5552C125.894 17.1528 125.813 17.7956 125.887 18.4302C125.962 19.0647 126.19 19.6726 126.553 20.203C126.925 20.6413 127.382 21.0032 127.898 21.268C128.413 21.5328 128.976 21.6953 129.556 21.7463L134.847 22.0269C134.99 22.0269 135.133 22.1672 135.276 22.1672C135.309 22.1917 135.336 22.2234 135.355 22.26C135.373 22.2965 135.383 22.3368 135.383 22.3776C135.383 22.4185 135.373 22.4587 135.355 22.4953C135.336 22.5318 135.309 22.5636 135.276 22.5881C135.133 22.8687 134.99 23.009 134.704 23.009L129.27 23.2896C127.681 23.4625 126.168 24.0476 124.886 24.9847C123.604 25.9217 122.6 27.1768 121.977 28.6209L121.691 29.8836C121.548 30.0239 121.691 30.3045 121.977 30.3045H140.853C140.911 30.3127 140.97 30.3074 141.026 30.2891C141.082 30.2709 141.133 30.2401 141.174 30.1993C141.216 30.1584 141.247 30.1086 141.266 30.0538C141.285 29.9991 141.29 29.9408 141.282 29.8836C141.622 28.6949 141.814 27.47 141.854 26.2358C141.831 22.7078 140.392 19.3306 137.85 16.8358C135.307 14.3411 131.865 12.9297 128.269 12.9075Z" fill="#00293A"/>
<path d="M143.713 38.1611C143.459 38.1611 143.21 38.0871 142.998 37.9483C142.786 37.8096 142.621 37.6124 142.524 37.3816C142.427 37.1509 142.401 36.897 142.451 36.6521C142.501 36.4071 142.623 36.1822 142.803 36.0056C142.983 35.829 143.212 35.7087 143.462 35.66C143.712 35.6113 143.97 35.6363 144.206 35.7319C144.441 35.8274 144.642 35.9893 144.783 36.1969C144.925 36.4046 145 36.6487 145 36.8984C145.001 37.0644 144.968 37.2289 144.904 37.3825C144.839 37.536 144.744 37.6754 144.625 37.7928C144.505 37.9102 144.363 38.0032 144.206 38.0664C144.05 38.1296 143.882 38.1618 143.713 38.1611ZM143.713 35.9163C143.515 35.9163 143.322 35.9739 143.157 36.0818C142.992 36.1898 142.864 36.3431 142.788 36.5226C142.713 36.702 142.693 36.8995 142.731 37.09C142.77 37.2805 142.865 37.4555 143.005 37.5929C143.145 37.7302 143.324 37.8237 143.518 37.8616C143.712 37.8995 143.913 37.8801 144.096 37.8058C144.279 37.7314 144.435 37.6055 144.545 37.444C144.655 37.2825 144.714 37.0927 144.714 36.8984C144.717 36.7686 144.694 36.6395 144.644 36.5189C144.595 36.3983 144.522 36.2888 144.428 36.1969C144.334 36.1051 144.223 36.0329 144.1 35.9846C143.977 35.9364 143.845 35.9132 143.713 35.9163ZM144.285 37.5999H143.999L143.713 37.179H143.427V37.5999H143.141V36.3372H143.856C143.914 36.3291 143.974 36.3343 144.03 36.3526C144.085 36.3708 144.136 36.4016 144.178 36.4425C144.219 36.4833 144.251 36.5331 144.269 36.5879C144.288 36.6427 144.293 36.701 144.285 36.7581C144.285 36.8984 144.142 37.0387 143.999 37.179L144.285 37.5999ZM143.856 36.8984C143.999 36.8984 143.999 36.8984 143.999 36.7581C143.999 36.7396 143.996 36.7212 143.989 36.704C143.982 36.6868 143.971 36.6711 143.958 36.658C143.945 36.6449 143.929 36.6346 143.911 36.6277C143.894 36.6208 143.875 36.6174 143.856 36.6178H143.427V37.0387H143.856V36.8984ZM15.5869 35.6357H18.7328V44.0536H24.1668V46.7193H15.5869V35.6357ZM27.4557 41.1074C27.4558 40.3281 27.617 39.5569 27.9297 38.8405C28.2424 38.1241 28.7001 37.4774 29.275 36.9397C29.8498 36.4019 30.53 35.9842 31.2742 35.7118C32.0184 35.4394 32.8112 35.3181 33.6046 35.3551C34.3906 35.3204 35.1755 35.4444 35.9108 35.7193C36.646 35.9943 37.3158 36.4144 37.8788 36.9536C38.4419 37.4928 38.886 38.1397 39.1839 38.8542C39.4818 39.5687 39.627 40.3356 39.6105 41.1074C39.6105 41.8867 39.4492 42.6579 39.1365 43.3743C38.8238 44.0906 38.3662 44.7373 37.7913 45.2751C37.2164 45.8129 36.5363 46.2306 35.7921 46.503C35.0479 46.7753 34.255 46.8967 33.4616 46.8596C32.6787 46.8825 31.899 46.7503 31.1693 46.4711C30.4395 46.1919 29.7745 45.7713 29.214 45.2345C28.6535 44.6976 28.2089 44.0555 27.9068 43.3465C27.6047 42.6374 27.4513 41.8759 27.4557 41.1074ZM36.4646 41.1074C36.4926 40.7184 36.44 40.328 36.3098 39.9596C36.1797 39.5912 35.9748 39.2525 35.7074 38.964C35.4401 38.6755 35.116 38.4431 34.7545 38.281C34.3931 38.1189 34.0019 38.0304 33.6046 38.0208C32.8335 38.0577 32.1065 38.3843 31.5741 38.9328C31.0416 39.4812 30.7447 40.2096 30.7447 40.9671C30.7447 41.7245 31.0416 42.4529 31.5741 43.0014C32.1065 43.5499 32.8335 43.8764 33.6046 43.9133C35.3206 44.1939 36.4646 42.791 36.4646 41.1074ZM43.4715 41.8089V35.6357H46.6174V41.8089C46.6174 43.3522 47.4754 44.1939 48.7624 44.1939C49.063 44.2185 49.3653 44.176 49.6468 44.0697C49.9283 43.9634 50.1816 43.7961 50.3879 43.5802C50.5942 43.3643 50.7481 43.1055 50.838 42.8231C50.928 42.5406 50.9517 42.2419 50.9074 41.9492V35.6357H54.0533V41.8089C54.0533 45.4566 51.9084 46.9999 48.7624 46.9999C45.4735 46.8596 43.4715 45.3163 43.4715 41.8089ZM58.7723 35.6357H63.2052C67.2092 35.6357 69.6401 37.8805 69.6401 41.1074C69.6401 44.3342 67.2092 46.7193 63.2052 46.7193H58.9153V35.6357H58.7723ZM63.2052 43.9133C63.6037 43.9507 64.0057 43.9059 64.3856 43.7818C64.7654 43.6578 65.1146 43.4573 65.4108 43.1931C65.707 42.9289 65.9436 42.6069 66.1056 42.2477C66.2675 41.8885 66.3512 41.5001 66.3512 41.1074C66.3512 40.7146 66.2675 40.3262 66.1056 39.9671C65.9436 39.6079 65.707 39.2859 65.4108 39.0217C65.1146 38.7575 64.7654 38.557 64.3856 38.4329C64.0057 38.3089 63.6037 38.2641 63.2052 38.3014H61.9182V43.9133H63.2052ZM74.0731 35.6357H83.0819V38.3014H77.219V40.1253H82.5099V42.6507H77.219V46.7193H74.0731V35.6357ZM87.5149 35.6357H90.6608V44.0536H96.0947V46.7193H87.5149V35.6357ZM104.246 35.4954H107.392L112.254 46.7193H108.822L107.964 44.7551H103.531L102.673 46.7193H99.3837L104.246 35.4954ZM107.106 42.3701L105.819 39.2835L104.532 42.3701H107.106ZM116.257 35.6357H121.548C122.223 35.582 122.903 35.6665 123.543 35.8839C124.183 36.1012 124.77 36.4467 125.266 36.8984C125.676 37.3318 125.973 37.8557 126.133 38.4256C126.293 38.9956 126.31 39.5949 126.184 40.1729C126.058 40.7509 125.792 41.2906 125.408 41.7463C125.024 42.202 124.534 42.5603 123.979 42.791L126.696 46.7193H123.121L120.833 43.3522H119.403V46.7193H116.257V35.6357ZM121.405 40.9671C122.406 40.9671 123.121 40.4059 123.121 39.7044C123.121 38.8626 122.406 38.4417 121.405 38.4417H119.403V41.1074H121.405V40.9671ZM130.7 35.6357H139.852V38.1611H133.846V39.8447H139.28V42.3701H133.846V44.0536H139.995V46.7193H130.7V35.6357ZM8.72297 42.5104C8.5073 43.0062 8.14893 43.4295 7.69176 43.7286C7.23458 44.0276 6.69844 44.1893 6.14901 44.1939C5.37792 44.157 4.65085 43.8305 4.11844 43.282C3.58602 42.7335 3.28905 42.0051 3.28905 41.2477C3.28905 40.4902 3.58602 39.7618 4.11844 39.2133C4.65085 38.6649 5.37792 38.3383 6.14901 38.3014C6.73381 38.3124 7.30256 38.4909 7.78529 38.815C8.26802 39.139 8.64365 39.5945 8.86597 40.1253H12.1549C11.8736 38.7814 11.1158 37.5788 10.0162 36.7311C8.91667 35.8835 7.54647 35.4457 6.14901 35.4954C5.35855 35.4702 4.57088 35.5997 3.83197 35.8763C3.09307 36.153 2.41772 36.5712 1.84533 37.1067C1.27294 37.6422 0.814978 38.2841 0.498165 38.9951C0.181353 39.7061 0.0120356 40.4718 9.2099e-05 41.2477C-0.00430957 42.0162 0.149108 42.7777 0.451191 43.4868C0.753275 44.1958 1.19783 44.8379 1.75835 45.3748C2.31887 45.9116 2.98385 46.3322 3.71363 46.6114C4.44342 46.8906 5.22305 47.0227 6.00601 46.9999C7.3723 47.009 8.70306 46.5731 9.78987 45.7607C10.8767 44.9483 11.6582 43.8052 12.0119 42.5104H8.72297Z" fill="#00293A"/>
</g>
<defs>
<clipPath id="clip0_2033_1707">
<rect width="145" height="47" fill="white"/>
</clipPath>
</defs>
</svg>
