<svg width="136" height="26" viewBox="0 0 136 26" fill="none" xmlns="http://www.w3.org/2000/svg">
<path d="M100.124 4.19878C99.8263 4.2019 99.5309 4.15037 99.2552 4.04724C98.9796 3.94411 98.7294 3.79145 98.5193 3.59831C98.3097 3.40433 98.1441 3.17443 98.0318 2.92174C97.9195 2.66905 97.8627 2.39855 97.8648 2.12575C97.8669 1.85296 97.9277 1.58321 98.0438 1.33198C98.16 1.08074 98.3291 0.852966 98.5416 0.661665C98.7523 0.469386 99.0027 0.317389 99.2782 0.214554C99.5537 0.111719 99.8488 0.0600848 100.146 0.0626582C100.734 0.0734649 101.294 0.291909 101.709 0.672233C102.125 1.05256 102.363 1.56527 102.375 2.10302C102.377 2.65232 102.141 3.17992 101.719 3.57063C101.518 3.77528 101.27 3.93697 100.993 4.04425C100.716 4.15153 100.417 4.20179 100.116 4.19148M44.2034 18.7655L38.329 0.256504H30.3626V1.45594H31.1299C31.6024 1.43674 32.0752 1.48593 32.5309 1.60168C33.0738 1.76637 33.4352 2.13947 33.5928 2.73846C33.6835 3.00808 33.7058 3.58667 33.7058 4.45528V19.057C33.7058 20.4211 33.6612 21.3888 33.5705 21.9514C33.4357 22.6966 33.1417 23.2553 32.6885 23.6274C32.2334 24.0104 31.6351 24.2191 31.0169 24.2103H30.3626V25.4302H38.8798V24.2103H38.3369C36.8452 24.2103 35.898 23.5487 35.4904 22.2457C35.3551 21.7706 35.2867 20.6951 35.2867 19.0613V2.54461L42.5382 25.4375H43.8118L51.0857 2.54461V20.5144C51.0911 21.2119 51.0533 21.9092 50.9726 22.6028C50.9501 22.9976 50.7739 23.3719 50.4759 23.658C50.0477 24.0296 49.3249 24.2409 48.2853 24.2409H47.9462V25.4608H58.2942V24.2409H57.7291C56.3058 24.2409 55.4477 23.8489 55.1548 23.0837C54.9956 22.6698 54.9287 21.8216 54.9287 20.5391V5.21166C54.924 4.50734 54.9618 3.80333 55.0418 3.10281C55.0695 2.7152 55.2453 2.34887 55.5385 2.06804C55.9444 1.676 56.6911 1.48508 57.7068 1.48508H58.2719V0.265257H50.2196L44.2034 18.7655ZM67.0646 7.51436C69.6404 7.51436 71.718 8.44563 73.3227 10.3067C74.7237 11.9201 75.4241 14.0712 75.4241 16.6974C75.4241 19.3863 74.7237 21.536 73.3227 23.1712C71.7413 25.0328 69.6186 25.9631 66.9547 25.9621C64.4473 25.9621 62.392 25.0323 60.8096 23.1712C59.4102 21.536 58.7097 19.382 58.7097 16.7383C58.7097 14.0945 59.4102 11.9201 60.8096 10.3067C62.392 8.44563 64.4712 7.51436 67.0677 7.51436M67.0677 24.7423C69.9599 24.7423 71.4059 22.0471 71.4059 16.6566C71.4059 14.179 71.0875 12.2917 70.4507 10.9888C70.0968 10.2291 69.4974 9.58677 68.733 9.1481C68.232 8.86078 67.6525 8.70919 67.0614 8.71088C66.1125 8.71088 65.2767 9.0626 64.554 9.76604C63.3345 10.9242 62.7248 13.1783 62.7248 16.5284C62.7248 19.2974 63.1084 21.4092 63.8535 22.836C64.5094 24.1185 65.5713 24.7394 67.0614 24.7394M87.2017 7.68924C89.1901 7.68924 90.8156 8.33051 92.1035 9.63343C93.7528 11.308 94.5886 13.583 94.5886 16.4366C94.5886 19.1677 93.8436 21.4209 92.3741 23.2616C90.9971 24.9784 89.1663 25.8266 86.9072 25.8266C85.7122 25.8308 84.5421 25.5141 83.5417 24.9157C83.3157 24.7918 82.8635 24.461 82.1631 23.9451C81.9748 23.7749 81.7265 23.6716 81.4626 23.6536C81.2142 23.6536 80.9436 23.8402 80.6507 24.2366C80.3784 24.5878 80.0855 24.9813 79.791 25.436H78.4139C78.5492 25.0848 78.6177 24.8531 78.64 24.7948C78.753 24.2992 78.8199 23.2645 78.8199 21.7138V4.42614C78.8199 3.06056 78.6607 2.21232 78.3232 1.88149C78.0525 1.57252 77.5097 1.4268 76.72 1.4268H76.4255V0.269633L82.3 0.0203879V10.5268C82.5891 9.86633 83.055 9.283 83.6548 8.8304C84.65 8.07447 85.9088 7.67103 87.2017 7.69362M86.4567 24.5076C89.1901 24.5076 90.5449 21.8392 90.5449 16.524C90.5449 14.0843 90.2058 12.2023 89.5276 10.878C88.8733 9.65817 87.9245 9.03734 86.6366 9.03734C85.7323 9.03734 84.8965 9.34777 84.1069 9.98902C82.6614 11.2089 81.937 13.4008 81.937 16.5867C81.937 19.0468 82.2761 20.9491 82.9543 22.2938C83.2941 22.9855 83.8426 23.5741 84.5351 23.9903C85.1094 24.3255 85.7756 24.5049 86.4567 24.5076ZM128.791 22.9555C129.312 22.3973 129.831 21.6118 130.374 20.6237L131.593 21.2227C129.853 24.4086 127.527 26 124.588 26C122.42 26 120.658 25.318 119.257 23.9742C117.54 22.2982 116.681 19.8585 116.681 16.6741C116.681 13.7593 117.54 11.3998 119.257 9.64214C120.611 8.25616 122.238 7.55372 124.158 7.55372C126.983 7.55372 129.129 8.8566 130.552 11.4624C131.321 12.847 131.749 14.5842 131.825 16.6523H120.546C120.568 19.0934 120.839 20.8918 121.382 22.0446C122.125 23.6964 123.412 24.5222 125.244 24.5222C126.645 24.5018 127.82 23.9844 128.791 22.9497M120.974 12.092C120.704 12.9665 120.568 14.0362 120.546 15.2779H127.978C127.978 13.7477 127.798 12.4651 127.436 11.4726C126.78 9.71502 125.742 8.82456 124.341 8.82456C122.759 8.84642 121.635 9.94238 120.974 12.092ZM113.135 23.8183C112.798 23.467 112.639 22.5984 112.639 21.2125V0L106.589 0.247751V1.40638H107.03C107.797 1.40638 108.34 1.55213 108.611 1.8611C108.95 2.21234 109.109 3.06056 109.109 4.42614V21.1979C109.109 22.5839 108.95 23.4321 108.611 23.8037C108.318 24.1141 107.797 24.2584 107.03 24.2584H106.374V25.417H115.388V24.2584H114.734C113.965 24.2803 113.424 24.1127 113.129 23.8212M102.67 23.8212C102.331 23.47 102.173 22.6014 102.173 21.2154V7.79417L96.1233 8.04192V9.22097H96.6009C97.3698 9.22097 97.9111 9.36671 98.2056 9.65819C98.5431 10.0094 98.7023 10.8576 98.7023 12.2232V21.1979C98.7023 22.5839 98.5431 23.4321 98.2056 23.8037C97.9111 24.1141 97.3921 24.2584 96.6009 24.2584H95.9466V25.417H104.96V24.2584H104.306C103.493 24.2803 102.974 24.1127 102.679 23.8212M16.9914 11.8472V16.9481H22.5714V11.8472H16.9882H16.9914ZM0.296109 0.266716L0.0254677 9.15685L1.49488 9.38564C1.76552 6.76232 2.51058 4.81378 3.75393 3.55604C5.04027 2.23272 6.8249 1.52881 9.10782 1.488V20.0771C9.10782 21.7109 8.85947 22.7456 8.33889 23.2412C7.91064 23.6551 7.16399 23.9028 6.10213 24.0063C5.78373 24.0267 5.26633 24.0486 4.52128 24.0486V25.4754H18.0978V24.0486C17.3528 24.0486 16.8115 24.0267 16.517 24.0063C15.4774 23.9028 14.7324 23.6551 14.2882 23.2412C13.7692 22.7456 13.5208 21.7109 13.5208 20.0771V1.48946C15.8022 1.55067 17.5868 2.23418 18.897 3.5575C20.1165 4.81815 20.8854 6.76378 21.1561 9.3871L22.6255 9.15831L22.3533 0.268174L0.296109 0.266716ZM5.58314 11.8472H0V16.9481H5.57995L5.58314 11.8472ZM132.749 9.5518V7.79417H133.359V7.52457H131.822V7.79417H132.432V9.5518H132.749ZM133.924 9.5518V7.98072L134.443 9.5518H134.782L135.279 7.95888V9.5518H135.571V7.52457H135.143L134.6 9.15831L134.059 7.52457H133.629V9.5518H133.924Z" fill="#00293A"/>
</svg>
